<svg width="1080" height="1080" viewBox="0 0 1080 1080" fill="none" xmlns="http://www.w3.org/2000/svg">
<path d="M1053 540C1053 823.322 823.322 1053 540 1053C256.678 1053 27 823.322 27 540C27 256.678 256.678 27 540 27C823.322 27 1053 256.678 1053 540ZM89.2126 540C89.2126 788.963 291.037 990.787 540 990.787C788.963 990.787 990.787 788.963 990.787 540C990.787 291.037 788.963 89.2126 540 89.2126C291.037 89.2126 89.2126 291.037 89.2126 540Z" fill="#FFF1F2"/>
<path d="M455.828 456.941L400.311 667H347.869L313.006 532.234C311.15 525.203 310.027 517.342 309.637 508.65H309.051C308.172 518.221 306.902 526.082 305.242 532.234L269.5 667H214.861L159.637 456.941H211.346L240.936 596.834C242.205 602.791 243.133 610.799 243.719 620.857H244.598C244.988 613.338 246.404 605.135 248.846 596.248L286.932 456.941H337.615L372.039 598.006C373.309 603.182 374.432 610.701 375.408 620.564H375.994C376.385 612.85 377.41 605.037 379.07 597.127L408.074 456.941H455.828ZM629.998 495.467H570.086V667H522.625V495.467H463.006V456.941H629.998V495.467ZM897.625 667H850.896V541.316C850.896 527.742 851.482 512.752 852.654 496.346H851.482C849.041 509.236 846.844 518.514 844.891 524.178L795.672 667H757L706.902 525.643C705.535 521.834 703.338 512.068 700.311 496.346H698.992C700.262 517.049 700.896 535.213 700.896 550.838V667H658.27V456.941H727.557L770.477 581.453C773.895 591.414 776.385 601.424 777.947 611.482H778.826C781.463 599.861 784.246 589.754 787.176 581.16L830.096 456.941H897.625V667Z" fill="#FFF1F2"/>
</svg>
